<svg xmlns="http://www.w3.org/2000/svg" xmlns:xlink="http://www.w3.org/1999/xlink" width="500" zoomAndPan="magnify" viewBox="0 0 375 374.999991" height="500" preserveAspectRatio="xMidYMid meet" version="1.0"><defs><g/><clipPath id="f561cdf350"><path d="M 137 118 L 238 118 L 238 208.132812 L 137 208.132812 Z M 137 118 " clip-rule="nonzero"/></clipPath><clipPath id="104a1c999f"><path d="M 130.769531 170 L 143 170 L 143 175 L 130.769531 175 Z M 130.769531 170 " clip-rule="nonzero"/></clipPath></defs><rect x="-37.5" width="450" fill="#ffffff" y="-37.499999" height="449.999989" fill-opacity="1"/><rect x="-37.5" width="450" fill="#d3d3d3" y="-37.499999" height="449.999989" fill-opacity="1"/><g clip-path="url(#f561cdf350)"><path fill="#fbf1e2" d="M 223.160156 119.34375 C 215.375 112.144531 202.074219 141.71875 202.074219 141.71875 L 172.71875 141.71875 C 172.71875 141.71875 159.417969 112.144531 151.632812 119.34375 C 142.421875 127.863281 131.722656 171.617188 140.417969 188.808594 C 149.121094 205.996094 170.617188 208.132812 185.890625 208.132812 C 201.164062 208.132812 225.671875 205.996094 234.371094 188.808594 C 243.074219 171.617188 232.371094 127.863281 223.160156 119.34375 " fill-opacity="1" fill-rule="nonzero"/></g><path fill="#4a4b5c" d="M 170.976562 167.066406 C 170.976562 169.652344 169.316406 171.75 167.269531 171.75 C 165.222656 171.75 163.5625 169.652344 163.5625 167.066406 C 163.5625 164.480469 165.222656 162.382812 167.269531 162.382812 C 169.316406 162.382812 170.976562 164.480469 170.976562 167.066406 " fill-opacity="1" fill-rule="nonzero"/><path fill="#4a4b5c" d="M 203.816406 167.066406 C 203.816406 169.652344 205.476562 171.75 207.523438 171.75 C 209.570312 171.75 211.230469 169.652344 211.230469 167.066406 C 211.230469 164.480469 209.570312 162.382812 207.523438 162.382812 C 205.476562 162.382812 203.816406 164.480469 203.816406 167.066406 " fill-opacity="1" fill-rule="nonzero"/><path fill="#f8b37b" d="M 179.71875 141.71875 L 172.71875 141.71875 C 172.71875 141.71875 159.417969 112.144531 151.632812 119.34375 C 145.625 124.902344 138.980469 145.460938 137.503906 163.851562 C 165.109375 165.589844 175.722656 153.050781 179.71875 141.71875 " fill-opacity="1" fill-rule="nonzero"/><path fill="#947e6f" d="M 195.074219 141.71875 L 202.074219 141.71875 C 202.074219 141.71875 215.375 112.144531 223.160156 119.34375 C 229.167969 124.902344 235.8125 145.460938 237.289062 163.851562 C 209.683594 165.589844 199.066406 153.050781 195.074219 141.71875 " fill-opacity="1" fill-rule="nonzero"/><path fill="#ffffff" d="M 155.328125 129.152344 C 152.507812 129.363281 150.117188 137.84375 151.445312 139.832031 C 152.273438 141.078125 159.507812 140.574219 160.734375 139.140625 C 161.964844 137.710938 158.203125 128.941406 155.328125 129.152344 " fill-opacity="1" fill-rule="nonzero"/><path fill="#ffffff" d="M 219.464844 129.152344 C 222.289062 129.363281 224.675781 137.84375 223.347656 139.832031 C 222.519531 141.078125 215.289062 140.574219 214.058594 139.140625 C 212.828125 137.710938 216.589844 128.941406 219.464844 129.152344 " fill-opacity="1" fill-rule="nonzero"/><path fill="#f578a0" d="M 187.394531 169.71875 C 184.199219 169.71875 181.417969 170.617188 182.007812 172.46875 C 182.480469 173.964844 184.101562 175.46875 186 175.992188 L 186.140625 182.96875 C 186.160156 184.679688 188.792969 184.683594 188.792969 182.96875 L 188.652344 176.027344 C 190.613281 175.539062 192.300781 174.003906 192.785156 172.46875 C 193.375 170.617188 190.59375 169.71875 187.394531 169.71875 " fill-opacity="1" fill-rule="nonzero"/><g clip-path="url(#104a1c999f)"><path fill="#4a4b5c" d="M 140.382812 174.863281 C 140.28125 174.863281 140.179688 174.855469 140.078125 174.835938 L 132.289062 173.371094 C 131.398438 173.203125 130.8125 172.339844 130.980469 171.445312 C 131.148438 170.550781 132.003906 169.957031 132.894531 170.128906 L 140.683594 171.59375 C 141.574219 171.761719 142.160156 172.621094 141.996094 173.519531 C 141.847656 174.3125 141.15625 174.863281 140.382812 174.863281 " fill-opacity="1" fill-rule="nonzero"/></g><path fill="#4a4b5c" d="M 133.789062 185.398438 C 133.121094 185.398438 132.496094 184.984375 132.25 184.320312 C 131.933594 183.46875 132.363281 182.519531 133.214844 182.199219 L 139.808594 179.738281 C 140.660156 179.417969 141.605469 179.855469 141.917969 180.707031 C 142.234375 181.5625 141.804688 182.511719 140.953125 182.828125 L 134.359375 185.292969 C 134.171875 185.363281 133.976562 185.398438 133.789062 185.398438 " fill-opacity="1" fill-rule="nonzero"/><path fill="#4a4b5c" d="M 234.410156 174.863281 C 233.636719 174.863281 232.945312 174.3125 232.796875 173.519531 C 232.632812 172.621094 233.21875 171.761719 234.109375 171.59375 L 241.898438 170.128906 C 242.785156 169.960938 243.644531 170.550781 243.8125 171.445312 C 243.980469 172.339844 243.394531 173.203125 242.5 173.371094 L 234.714844 174.835938 C 234.613281 174.855469 234.511719 174.863281 234.410156 174.863281 " fill-opacity="1" fill-rule="nonzero"/><path fill="#4a4b5c" d="M 241.003906 185.398438 C 240.816406 185.398438 240.621094 185.363281 240.433594 185.292969 L 233.839844 182.828125 C 232.988281 182.511719 232.558594 181.5625 232.875 180.707031 C 233.1875 179.855469 234.132812 179.417969 234.984375 179.738281 L 241.578125 182.199219 C 242.429688 182.519531 242.859375 183.46875 242.542969 184.320312 C 242.300781 184.984375 241.671875 185.398438 241.003906 185.398438 " fill-opacity="1" fill-rule="nonzero"/><g fill="#545454" fill-opacity="1"><g transform="translate(120.350564, 235.689126)"><g><path d="M 8.3125 0.296875 C 12.222656 0.296875 15.226562 -1.976562 15.542969 -5.214844 L 12.007812 -5.609375 C 11.691406 -4.007812 10.171875 -2.824219 8.433594 -2.824219 C 6.082031 -2.824219 4.441406 -4.523438 4.441406 -7.050781 C 4.441406 -9.597656 6.0625 -11.277344 8.433594 -11.277344 C 10.171875 -11.277344 11.671875 -10.070312 12.007812 -8.453125 L 15.5 -8.828125 C 15.105469 -12.105469 12.125 -14.394531 8.3125 -14.394531 C 3.851562 -14.394531 0.632812 -11.433594 0.632812 -7.050781 C 0.632812 -2.6875 3.851562 0.296875 8.3125 0.296875 Z M 8.3125 0.296875 "/></g></g></g><g fill="#545454" fill-opacity="1"><g transform="translate(136.542339, 235.689126)"><g><path d="M 0.15625 0 L 4.128906 0 L 4.878906 -2.351562 L 10.089844 -2.351562 L 10.839844 0 L 14.8125 0 L 10.308594 -14.101562 L 4.660156 -14.101562 Z M 5.609375 -5.054688 L 7.386719 -10.859375 L 7.5625 -10.859375 L 9.359375 -5.054688 Z M 5.609375 -5.054688 "/></g></g></g><g fill="#545454" fill-opacity="1"><g transform="translate(151.50986, 235.689126)"><g><path d="M 4.757812 0 L 8.570312 0 L 8.570312 -10.980469 L 13.074219 -10.980469 L 13.074219 -14.101562 L 0.257812 -14.101562 L 0.257812 -10.980469 L 4.757812 -10.980469 Z M 4.757812 0 "/></g></g></g><g fill="#545454" fill-opacity="1"><g transform="translate(164.83845, 235.689126)"><g/></g></g><g fill="#545454" fill-opacity="1"><g transform="translate(169.63674, 235.689126)"><g><path d="M 1.105469 0 L 11.277344 0 L 11.277344 -3.257812 L 4.9375 -3.257812 L 4.9375 -14.101562 L 1.105469 -14.101562 Z M 1.105469 0 "/></g></g></g><g fill="#545454" fill-opacity="1"><g transform="translate(181.365903, 235.689126)"><g><path d="M 8.492188 0.296875 C 13.171875 0.296875 16.371094 -2.566406 16.371094 -7.050781 C 16.371094 -11.53125 13.171875 -14.394531 8.492188 -14.394531 C 3.8125 -14.394531 0.632812 -11.53125 0.632812 -7.050781 C 0.632812 -2.566406 3.8125 0.296875 8.492188 0.296875 Z M 8.492188 -2.824219 C 6.101562 -2.824219 4.441406 -4.523438 4.441406 -7.050781 C 4.441406 -9.578125 6.101562 -11.277344 8.492188 -11.277344 C 10.882812 -11.277344 12.539062 -9.578125 12.539062 -7.050781 C 12.539062 -4.523438 10.882812 -2.824219 8.492188 -2.824219 Z M 8.492188 -2.824219 "/></g></g></g><g fill="#545454" fill-opacity="1"><g transform="translate(198.367268, 235.689126)"><g><path d="M 4.464844 0 L 10.40625 0 L 14.730469 -14.101562 L 10.78125 -14.101562 L 7.523438 -2.84375 L 7.347656 -2.84375 L 4.066406 -14.101562 L 0.15625 -14.101562 Z M 4.464844 0 "/></g></g></g><g fill="#545454" fill-opacity="1"><g transform="translate(213.236049, 235.689126)"><g><path d="M 1.105469 0 L 12.105469 0 L 12.105469 -2.980469 L 4.777344 -2.980469 L 4.777344 -5.925781 L 11.53125 -5.925781 L 11.53125 -8.351562 L 4.777344 -8.351562 L 4.777344 -11.117188 L 11.90625 -11.117188 L 11.90625 -14.101562 L 1.105469 -14.101562 Z M 1.105469 0 "/></g></g></g><g fill="#545454" fill-opacity="1"><g transform="translate(225.913024, 235.689126)"><g><path d="M 1.105469 0 L 4.9375 0 L 4.9375 -4.859375 L 6.261719 -4.859375 L 9.914062 0 L 14.121094 0 L 9.875 -5.132812 L 10.171875 -5.175781 C 12.300781 -5.507812 13.804688 -7.109375 13.804688 -9.398438 C 13.804688 -12.222656 11.570312 -14.101562 8.136719 -14.101562 L 1.105469 -14.101562 Z M 4.9375 -7.285156 L 4.9375 -11.394531 L 7.40625 -11.394531 C 8.90625 -11.394531 9.992188 -10.644531 9.992188 -9.339844 C 9.992188 -8.058594 8.90625 -7.285156 7.40625 -7.285156 Z M 4.9375 -7.285156 "/></g></g></g><g fill="#545454" fill-opacity="1"><g transform="translate(240.406633, 235.689126)"><g><path d="M 7.03125 0.296875 C 10.921875 0.296875 13.527344 -1.480469 13.527344 -4.246094 C 13.527344 -7.582031 10.289062 -8.058594 7.878906 -8.414062 C 6.140625 -8.648438 4.621094 -8.867188 4.621094 -10.089844 C 4.621094 -11.019531 5.550781 -11.691406 7.011719 -11.691406 C 8.570312 -11.691406 9.617188 -10.882812 9.617188 -9.519531 L 13.054688 -9.519531 C 13.035156 -12.402344 10.566406 -14.394531 6.871094 -14.394531 C 3.238281 -14.394531 0.808594 -12.558594 0.808594 -9.792969 C 0.808594 -6.261719 4.402344 -6.003906 6.832031 -5.648438 C 8.394531 -5.429688 9.714844 -5.195312 9.714844 -4.027344 C 9.714844 -3.019531 8.707031 -2.410156 7.1875 -2.410156 C 5.371094 -2.410156 4.285156 -3.296875 4.285156 -4.621094 L 0.710938 -4.621094 C 0.710938 -1.738281 3.257812 0.296875 7.03125 0.296875 Z M 7.03125 0.296875 "/></g></g></g><g fill="#545454" fill-opacity="1"><g transform="translate(151.1492, 260.148996)"><g><path d="M 4.355469 -1.476562 C 3.070312 -1.476562 2.363281 -2.53125 2.363281 -4.199219 C 2.363281 -5.878906 3.070312 -6.925781 4.355469 -6.925781 C 5.257812 -6.925781 5.664062 -6.539062 5.976562 -5.722656 L 7.789062 -5.722656 C 7.585938 -7.597656 6.058594 -8.507812 4.320312 -8.507812 C 2.015625 -8.507812 0.445312 -6.984375 0.445312 -4.199219 C 0.445312 -1.414062 2.015625 0.109375 4.320312 0.109375 C 6.070312 0.109375 7.609375 -0.804688 7.8125 -2.6875 L 5.988281 -2.6875 C 5.6875 -1.859375 5.269531 -1.476562 4.355469 -1.476562 Z M 4.355469 -1.476562 "/></g></g></g><g fill="#545454" fill-opacity="1"><g transform="translate(159.321219, 260.148996)"><g><path d="M 4.441406 -8.507812 C 2.027344 -8.507812 0.445312 -6.925781 0.445312 -4.199219 C 0.445312 -1.5 2.027344 0.109375 4.441406 0.109375 C 6.851562 0.109375 8.425781 -1.5 8.425781 -4.199219 C 8.425781 -6.925781 6.851562 -8.507812 4.441406 -8.507812 Z M 4.441406 -1.476562 C 3.109375 -1.476562 2.363281 -2.519531 2.363281 -4.199219 C 2.363281 -5.890625 3.109375 -6.925781 4.441406 -6.925781 C 5.761719 -6.925781 6.503906 -5.890625 6.503906 -4.199219 C 6.503906 -2.519531 5.761719 -1.476562 4.441406 -1.476562 Z M 4.441406 -1.476562 "/></g></g></g><g fill="#545454" fill-opacity="1"><g transform="translate(168.189234, 260.148996)"><g><path d="M 0.625 -8.398438 L 0.625 0 L 2.460938 0 L 2.460938 -5.316406 L 2.519531 -5.316406 L 4.414062 0 L 5.761719 0 L 7.667969 -5.316406 L 7.726562 -5.316406 L 7.726562 0 L 9.5625 0 L 9.5625 -8.398438 L 7.441406 -8.398438 L 5.089844 -2.4375 L 2.746094 -8.398438 Z M 0.625 -8.398438 "/></g></g></g><g fill="#545454" fill-opacity="1"><g transform="translate(178.377256, 260.148996)"><g><path d="M 0.625 -8.398438 L 0.625 0 L 2.460938 0 L 2.460938 -5.316406 L 2.519531 -5.316406 L 4.414062 0 L 5.761719 0 L 7.667969 -5.316406 L 7.726562 -5.316406 L 7.726562 0 L 9.5625 0 L 9.5625 -8.398438 L 7.441406 -8.398438 L 5.089844 -2.4375 L 2.746094 -8.398438 Z M 0.625 -8.398438 "/></g></g></g><g fill="#545454" fill-opacity="1"><g transform="translate(188.565278, 260.148996)"><g><path d="M 7.546875 -3.253906 L 7.546875 -8.398438 L 5.710938 -8.398438 L 5.710938 -3.324219 C 5.710938 -2.074219 5.113281 -1.476562 4.09375 -1.476562 C 3.070312 -1.476562 2.460938 -2.074219 2.460938 -3.324219 L 2.460938 -8.398438 L 0.625 -8.398438 L 0.625 -3.253906 C 0.625 -1.09375 2.027344 0.109375 4.09375 0.109375 C 6.132812 0.109375 7.546875 -1.09375 7.546875 -3.253906 Z M 7.546875 -3.253906 "/></g></g></g><g fill="#545454" fill-opacity="1"><g transform="translate(196.737298, 260.148996)"><g><path d="M 7.714844 -8.398438 L 5.878906 -8.398438 L 5.878906 -2.941406 L 5.84375 -2.941406 L 2.484375 -8.398438 L 0.625 -8.398438 L 0.625 0 L 2.460938 0 L 2.460938 -5.351562 L 2.496094 -5.351562 L 5.785156 0 L 7.714844 0 Z M 7.714844 -8.398438 "/></g></g></g><g fill="#545454" fill-opacity="1"><g transform="translate(205.077316, 260.148996)"><g><path d="M 2.460938 0 L 2.460938 -8.398438 L 0.625 -8.398438 L 0.625 0 Z M 2.460938 0 "/></g></g></g><g fill="#545454" fill-opacity="1"><g transform="translate(208.161327, 260.148996)"><g><path d="M 6.9375 -8.398438 L 0.265625 -8.398438 L 0.265625 -6.816406 L 2.6875 -6.816406 L 2.6875 0 L 4.523438 0 L 4.523438 -6.816406 L 6.9375 -6.816406 Z M 6.9375 -8.398438 "/></g></g></g><g fill="#545454" fill-opacity="1"><g transform="translate(215.361343, 260.148996)"><g><path d="M 5.171875 -3.085938 L 8.195312 -8.398438 L 6.132812 -8.398438 L 4.222656 -4.847656 L 2.328125 -8.398438 L 0.265625 -8.398438 L 3.289062 -3.085938 L 3.289062 0 L 5.171875 0 Z M 5.171875 -3.085938 "/></g></g></g></svg>