<svg xmlns="http://www.w3.org/2000/svg" xmlns:xlink="http://www.w3.org/1999/xlink" width="500" zoomAndPan="magnify" viewBox="0 0 375 374.999991" height="500" preserveAspectRatio="xMidYMid meet" version="1.0"><defs><clipPath id="b7b3200ae2"><path d="M 21 41 L 354 41 L 354 337.59375 L 21 337.59375 Z M 21 41 " clip-rule="nonzero"/></clipPath></defs><g clip-path="url(#b7b3200ae2)"><path fill="#fbf1e2" d="M 305.929688 44.867188 C 280.144531 21.121094 236.101562 118.636719 236.101562 118.636719 L 138.898438 118.636719 C 138.898438 118.636719 94.855469 21.121094 69.074219 44.867188 C 38.574219 72.953125 3.136719 217.199219 31.941406 273.875 C 60.75 330.550781 131.941406 337.585938 182.519531 337.585938 C 233.089844 337.585938 314.25 330.550781 343.058594 273.875 C 371.867188 217.199219 336.425781 72.953125 305.929688 44.867188 " fill-opacity="1" fill-rule="nonzero"/></g><path fill="#4a4b5c" d="M 133.132812 202.195312 C 133.132812 210.722656 127.636719 217.636719 120.855469 217.636719 C 114.078125 217.636719 108.582031 210.722656 108.582031 202.195312 C 108.582031 193.667969 114.078125 186.757812 120.855469 186.757812 C 127.636719 186.757812 133.132812 193.667969 133.132812 202.195312 " fill-opacity="1" fill-rule="nonzero"/><path fill="#4a4b5c" d="M 241.871094 202.195312 C 241.871094 210.722656 247.363281 217.636719 254.144531 217.636719 C 260.925781 217.636719 266.417969 210.722656 266.417969 202.195312 C 266.417969 193.667969 260.925781 186.757812 254.144531 186.757812 C 247.363281 186.757812 241.871094 193.667969 241.871094 202.195312 " fill-opacity="1" fill-rule="nonzero"/><path fill="#f8b37b" d="M 162.074219 118.636719 L 138.898438 118.636719 C 138.898438 118.636719 94.855469 21.121094 69.074219 44.867188 C 49.175781 63.195312 27.179688 130.964844 22.289062 191.601562 C 113.703125 197.335938 148.851562 155.984375 162.074219 118.636719 " fill-opacity="1" fill-rule="nonzero"/><path fill="#947e6f" d="M 212.929688 118.636719 L 236.101562 118.636719 C 236.101562 118.636719 280.144531 21.121094 305.929688 44.867188 C 325.828125 63.195312 347.820312 130.964844 352.710938 191.601562 C 261.296875 197.335938 226.148438 155.984375 212.929688 118.636719 " fill-opacity="1" fill-rule="nonzero"/><path fill="#ffffff" d="M 81.304688 77.203125 C 71.964844 77.898438 64.050781 105.851562 68.449219 112.417969 C 71.199219 116.523438 95.144531 114.855469 99.210938 110.132812 C 103.28125 105.410156 90.832031 76.5 81.304688 77.203125 " fill-opacity="1" fill-rule="nonzero"/><path fill="#ffffff" d="M 293.695312 77.203125 C 303.039062 77.898438 310.949219 105.851562 306.550781 112.417969 C 303.804688 116.523438 279.859375 114.855469 275.789062 110.132812 C 271.71875 105.410156 284.167969 76.5 293.695312 77.203125 " fill-opacity="1" fill-rule="nonzero"/><path fill="#f578a0" d="M 187.5 210.941406 C 176.917969 210.941406 167.703125 213.90625 169.65625 220.011719 C 171.226562 224.945312 176.585938 229.898438 182.878906 231.628906 L 183.347656 254.621094 C 183.410156 260.269531 192.125 260.285156 192.125 254.621094 L 191.660156 231.738281 C 198.152344 230.136719 203.734375 225.066406 205.347656 220.011719 C 207.296875 213.90625 198.082031 210.941406 187.5 210.941406 " fill-opacity="1" fill-rule="nonzero"/><path fill="#4a4b5c" d="M 31.820312 227.90625 C 31.484375 227.90625 31.148438 227.875 30.8125 227.8125 L 5.023438 222.980469 C 2.074219 222.425781 0.128906 219.582031 0.679688 216.632812 C 1.234375 213.679688 4.078125 211.734375 7.027344 212.289062 L 32.816406 217.121094 C 35.765625 217.675781 37.710938 220.515625 37.15625 223.46875 C 36.667969 226.085938 34.386719 227.90625 31.820312 227.90625 " fill-opacity="1" fill-rule="nonzero"/><path fill="#4a4b5c" d="M 9.980469 262.628906 C 7.773438 262.628906 5.699219 261.273438 4.882812 259.082031 C 3.835938 256.269531 5.269531 253.140625 8.085938 252.09375 L 29.917969 243.972656 C 32.734375 242.925781 35.863281 244.359375 36.910156 247.171875 C 37.953125 249.988281 36.523438 253.117188 33.707031 254.167969 L 11.875 262.289062 C 11.25 262.519531 10.609375 262.628906 9.980469 262.628906 " fill-opacity="1" fill-rule="nonzero"/><path fill="#4a4b5c" d="M 343.179688 227.90625 C 340.617188 227.90625 338.332031 226.085938 337.84375 223.46875 C 337.289062 220.515625 339.234375 217.675781 342.1875 217.121094 L 367.972656 212.289062 C 370.910156 211.738281 373.765625 213.679688 374.320312 216.632812 C 374.871094 219.582031 372.929688 222.425781 369.976562 222.980469 L 344.1875 227.8125 C 343.851562 227.875 343.515625 227.90625 343.179688 227.90625 " fill-opacity="1" fill-rule="nonzero"/><path fill="#4a4b5c" d="M 365.019531 262.628906 C 364.394531 262.628906 363.75 262.519531 363.128906 262.289062 L 341.292969 254.167969 C 338.480469 253.117188 337.046875 249.988281 338.09375 247.171875 C 339.140625 244.355469 342.269531 242.925781 345.082031 243.972656 L 366.914062 252.09375 C 369.730469 253.140625 371.164062 256.269531 370.117188 259.082031 C 369.304688 261.273438 367.226562 262.628906 365.019531 262.628906 " fill-opacity="1" fill-rule="nonzero"/></svg>